<?xml version="1.0"?>
<svg 
    width="122.88" 
    height="122.88" 
    xmlns="http://www.w3.org/2000/svg" 
    xmlns:svg="http://www.w3.org/2000/svg" 
    enable-background="new 0 0 122.88 35.03" 
    version="1.1" 
    xml:space="preserve">
    <style type="text/css">.st0{fill-rule:evenodd;clip-rule:evenodd;}</style>
    <g class="layer">
    <title>Layer 1</title>
    <g id="svg_1">
    <path 
        class="st0" 
        id="svg_2"
        d="m44.98,58.53c2.5,0 4.53,3.02 4.53,6.75c0,3.73 -2.03,6.75 -4.53,6.75s-4.53,-3.02 -4.53,-6.75c0,-3.73 2.03,-6.75 4.53,-6.75l0,0zm-8.6,-5.39c-0.25,0.8 -0.45,1.69 -0.6,2.66c-0.35,1.62 0.16,1.96 1.35,1.3c0.87,-0.77 1.74,-1.55 2.61,-2.33c0.44,-0.47 0.65,-0.92 0.58,-1.38c-0.14,-0.89 -1.3,-1.36 -2.25,-1.64c-1.21,-0.36 -1.12,-0.43 -1.69,1.38l0,0zm-23.3,9c1.16,0 2.11,1.4 2.11,3.14c0,1.73 -0.94,3.14 -2.11,3.14c-1.16,0 -2.11,-1.4 -2.11,-3.14c0,-1.74 0.94,-3.14 2.11,-3.14l0,0zm31.9,0c1.16,0 2.11,1.4 2.11,3.14c0,1.73 -0.94,3.14 -2.11,3.14c-1.16,0 -2.11,-1.4 -2.11,-3.14c0,-1.74 0.94,-3.14 2.11,-3.14l0,0zm-22.49,-4.28c1.17,-1.87 2.52,-3.08 4.08,-4.25c3.42,-2.57 5.51,-2.25 9.14,-2.25l-1.22,4.72c-0.51,1.01 -1.09,1.72 -1.97,1.79l-10.04,0l0,0zm-9.41,0.67c2.5,0 4.53,3.02 4.53,6.75c0,3.73 -2.03,6.75 -4.53,6.75s-4.53,-3.02 -4.53,-6.75c0,-3.73 2.03,-6.75 4.53,-6.75l0,0zm7.16,-2.06c1.49,-1.38 3.1,-2.61 4.89,-3.66c5.45,-3.2 9.62,-3.77 15.33,-1.19c1.72,0.97 3.45,1.95 5.17,2.55c1.7,0.6 9.07,1.18 9.25,3.02l-1.82,3.24c0.66,0.86 1.2,1.91 1.4,3.55c-0.05,1.01 -0.24,1.86 -0.56,2.54c-0.54,1.16 -2.14,2.36 -3,1.68c-0.27,-0.22 -0.43,-0.66 -0.43,-1.41c0.03,-15.03 -12.16,-13.32 -11.24,1.77l-21.25,0c3.93,-15.12 -12.85,-15.17 -9.87,-0.52c-1.05,1.69 -3.52,-0.86 -5.11,-6.26c0.43,-0.64 0.91,-1.25 1.44,-1.82c-0.03,-0.03 0.03,0.12 -0.06,-0.11c-0.09,-0.23 0.22,-1.18 0.84,-1.72c3.28,-2.86 11.18,-2.79 15.01,-1.67l0,0z" 
    />
    </g>
    <text 
        fill="#008080" 
        font-family="Serif" 
        font-size="24" 
        font-weight="bold" 
        id="svg_4" 
        stroke-width="0" 
        text-anchor="middle" 
        transform="matrix(0.433722 0 0 0.636014 31.5671 4.22943)" 
        x="127.62" 
        xml:space="preserve" 
        y="95.41"
    >
    AURENTO
    </text>
 </g>
</svg>